<svg id='Archery_24' width='24' height='24' viewBox='0 0 24 24' xmlns='http://www.w3.org/2000/svg' xmlns:xlink='http://www.w3.org/1999/xlink'><rect width='24' height='24' stroke='none' fill='#000000' opacity='0'/>


<g transform="matrix(0.42 0 0 0.42 12 12)" >
<g style="" >
<g transform="matrix(1 0 0 1 8 -6.1)" >
<path style="stroke: none; stroke-width: 1; stroke-dasharray: none; stroke-linecap: butt; stroke-dashoffset: 0; stroke-linejoin: miter; stroke-miterlimit: 4; fill: rgb(255,186,87); fill-rule: nonzero; opacity: 1;" transform=" translate(-32, -17.9)" d="M 37.5 16 L 25 16 L 25 19.8 L 37.5 19 C 38.3 19 39 18.3 39 17.5 C 39 16.7 38.3 16 37.5 16 z" stroke-linecap="round" />
</g>
<g transform="matrix(1 0 0 1 -3 12.5)" >
<path style="stroke: none; stroke-width: 1; stroke-dasharray: none; stroke-linecap: butt; stroke-dashoffset: 0; stroke-linejoin: miter; stroke-miterlimit: 4; fill: rgb(142,36,170); fill-rule: nonzero; opacity: 1;" transform=" translate(-21, -36.5)" d="M 25 46 C 23.9 46 23 45.1 23 44 L 20 30 L 19 38 L 19 44 C 19 45.1 18.1 46 17 46 C 15.899999999999999 46 15 45.1 15 44 L 15 27 L 25 27 L 25 28 L 27 44 C 27 45.1 26.1 46 25 46 z" stroke-linecap="round" />
</g>
<g transform="matrix(1 0 0 1 -4.5 -13.5)" >
<path style="stroke: none; stroke-width: 1; stroke-dasharray: none; stroke-linecap: butt; stroke-dashoffset: 0; stroke-linejoin: miter; stroke-miterlimit: 4; fill: rgb(255,186,87); fill-rule: nonzero; opacity: 1;" transform=" translate(-19.5, -10.5)" d="M 19.5 7 C 21.4 7 23 8.6 23 10.5 C 23 12.4 21.4 14 19.5 14 C 17.6 14 16 12.4 16 10.5 C 16 8.6 17.6 7 19.5 7" stroke-linecap="round" />
</g>
<g transform="matrix(1 0 0 1 -4 -2)" >
<path style="stroke: none; stroke-width: 1; stroke-dasharray: none; stroke-linecap: butt; stroke-dashoffset: 0; stroke-linejoin: miter; stroke-miterlimit: 4; fill: rgb(126,140,207); fill-rule: nonzero; opacity: 1;" transform=" translate(-20, -22)" d="M 15 16 L 25 16 L 25 28 L 15 28 L 15 16 z" stroke-linecap="round" />
</g>
<g transform="matrix(1 0 0 1 -5 -5.5)" >
<path style="stroke: none; stroke-width: 1; stroke-dasharray: none; stroke-linecap: butt; stroke-dashoffset: 0; stroke-linejoin: miter; stroke-miterlimit: 4; fill: rgb(95,110,196); fill-rule: nonzero; opacity: 1;" transform=" translate(-19, -18.5)" d="M 18.5 16 C 19.3 16 20 16.7 20 17.5 C 20 18.3 19.3 19 18.5 19 L 10 19 L 15 20 L 15 21 L 18.5 21 C 19.5 21 20.3 20.6 21 20 C 21 20 21 20 21 20 L 28 19.6 L 28 16 L 18.5 16 z" stroke-linecap="round" />
</g>
<g transform="matrix(1 0 0 1 0.45 -6)" >
<path style="stroke: none; stroke-width: 1; stroke-dasharray: none; stroke-linecap: butt; stroke-dashoffset: 0; stroke-linejoin: miter; stroke-miterlimit: 4; fill: rgb(38,50,56); fill-rule: nonzero; opacity: 1;" transform=" translate(-24.45, -18)" d="M 30.9 5.9 L 30.2 5.2 L 18 17 L 18 18 L 30.1 30.8 L 30.8 30.1 L 18.8 17.5 L 30.9 5.9 z" stroke-linecap="round" />
</g>
<g transform="matrix(1 0 0 1 -10 -6.5)" >
<path style="stroke: none; stroke-width: 1; stroke-dasharray: none; stroke-linecap: butt; stroke-dashoffset: 0; stroke-linejoin: miter; stroke-miterlimit: 4; fill: rgb(255,186,87); fill-rule: nonzero; opacity: 1;" transform=" translate(-14, -17.5)" d="M 18.5 19 L 9.5 19 C 8.7 19 8 18.3 8 17.5 C 8 16.7 8.7 16 9.5 16 L 18.5 16 C 19.3 16 20 16.7 20 17.5 C 20 18.3 19.3 19 18.5 19 z" stroke-linecap="round" />
</g>
<g transform="matrix(1 0 0 1 10.5 -6)" >
<path style="stroke: none; stroke-width: 1; stroke-dasharray: none; stroke-linecap: butt; stroke-dashoffset: 0; stroke-linejoin: miter; stroke-miterlimit: 4; fill: rgb(84,110,122); fill-rule: nonzero; opacity: 1;" transform=" translate(-34.5, -18)" d="M 31 33 L 29 33 C 29 30.1 31.3 29 32.9 29 C 33.5 28.9 37.9 27.9 38 24.1 C 37.8 23.3 37 19.6 37 18 C 37 16.4 37.8 12.7 38 11.9 C 37.9 8.100000000000001 33.5 7.1000000000000005 32.9 7 C 31.3 7 29 5.9 29 3 L 31 3 C 31 4.9 32.7 5 33 5 L 33.2 5 C 35.6 5.4 40 7.4 40 12 L 40 12.2 C 39.7 13.399999999999999 39 16.7 39 18 C 39 19.2 39.7 22.6 40 23.8 L 40 24 C 40 28.6 35.5 30.6 33.2 31 L 33 31 C 32.5 31 31 31.2 31 33 z" stroke-linecap="round" />
</g>
</g>
</g>
</svg>